<svg width="34" height="71" viewBox="0 0 34 71" fill="none" xmlns="http://www.w3.org/2000/svg">
<path d="M16.7329 22.8766C7.50619 22.8766 0 30.5008 0 39.8717V53.4054C0 62.7763 7.50619 70.4 16.7329 70.4C25.959 70.4 33.4658 62.7994 33.4658 53.4573V39.8717C33.4658 30.5008 25.959 22.8766 16.7329 22.8766ZM30.3184 53.4573C30.3184 61.0643 24.2243 67.2528 16.7329 67.2528C9.24191 67.2528 3.14731 61.0407 3.14731 53.4049V39.8717C3.14731 32.2359 9.24191 26.0238 16.7329 26.0238C24.2244 26.0238 30.3184 32.2359 30.3184 39.8717V53.4573Z" fill="#C08D5D"/>
<path d="M18.5737 47C17.7045 47 17 47.7045 17 48.5737V54.0814C17 54.9505 17.7045 55.655 18.5737 55.655C19.4428 55.655 20.1473 54.9505 20.1473 54.0814V48.5737C20.1473 47.7045 19.4428 47 18.5737 47Z" fill="#C08D5D"/>
<circle cx="17.0787" cy="11.7383" r="2.22766" fill="#C08D5D"/>
<circle cx="17.0787" cy="2.82764" r="2.22766" fill="#C08D5D" fill-opacity="0.31"/>
</svg>
